# xmcd CD database file
#
# Track frame offsets:
#	150
#	23376
#	54750
#	90464
#	112774
#	135839
#	209594
#	245153
#
# Disc length: 3625 seconds
#
# Revision: 0
# Processed by: cddbd v1.5.2PL0 Copyright (c) Steve Scherf et al.
# Submitted via: CDex 1.51
#
DISCID=570e2708
DTITLE=Various Artist - Simply Mind and Spirit CD 1
DYEAR=2010
DGENRE=New Age
TTITLE0=Daniel Otsuka - Awakening Of The Dawn
TTITLE1=Malabor - Sunrise
TTITLE2=Chris Cronway - Kapha
TTITLE3=Daniel Otsuka - Earths Unfolding Cords 
TTITLE4=Llewellyn - Inner Voice
TTITLE5=Midori - Forgotten Temple
TTITLE6=Llewellyn - The Crystal Caves
TTITLE7=Chris Conway - Kapha (Part 2)
EXTD=YEAR: 2010
EXTT0=
EXTT1=
EXTT2=
EXTT3=
EXTT4=
EXTT5=
EXTT6=
EXTT7=
PLAYORDER=
